# xmcd
#
# Track frame offsets: 
#        193
#        16369
#        50503
#        68705
#        81550
#        96130
#        114702
#        135542
#
# Disc length: 2021 seconds
#
# Revision: 0
# Processed by: cddbd v1.5.2PL0 Copyright (c) Steve Scherf et al.
# Submitted via: ExactAudioCopyFreeDBPlugin 1.0
#
DISCID=6a07e308
DTITLE=Melba Moore - Melba
DYEAR=1976
DGENRE=Soul
TTITLE0=The Way You Make Me Feel
TTITLE1=Good Love Makes Everything Alright
TTITLE2=The Long And Winding Road
TTITLE3=Ain't No Love Lost
TTITLE4=The Greatest Feeling
TTITLE5=Mighty Clouds Of Joy
TTITLE6=I Need Someone
TTITLE7=So Many Mountains
EXTD=
EXTT0=
EXTT1=
EXTT2=
EXTT3=
EXTT4=
EXTT5=
EXTT6=
EXTT7=
PLAYORDER=
